<?xml version="1.0" standalone="no"?>
<!DOCTYPE svg PUBLIC "-//W3C//DTD SVG 20010904//EN"
 "http://www.w3.org/TR/2001/REC-SVG-20010904/DTD/svg10.dtd">
<svg version="1.0" xmlns="http://www.w3.org/2000/svg"
 width="1000.000000pt" height="1000.000000pt" viewBox="0 0 1000.000000 1000.000000"
 preserveAspectRatio="xMidYMid meet">
<metadata>
Created by potrace 1.11, written by Peter Selinger 2001-2013
</metadata>
<g transform="translate(0.000000,1000.000000) scale(0.100000,-0.100000)"
fill="#000000" stroke="none">
<path d="M9941 9998 c2 -2 16 -14 32 -27 l27 -24 0 26 c0 24 -4 27 -32 27 -17
0 -29 -1 -27 -2z"/>
<path d="M4795 9491 c-11 -4 -37 -7 -57 -6 -21 0 -38 -2 -38 -5 0 -3 -19 -5
-42 -6 -46 0 -148 -11 -207 -21 -20 -3 -46 -6 -58 -7 -13 0 -23 -2 -23 -6 0
-3 -12 -6 -27 -7 -74 -5 -93 -8 -93 -15 0 -5 -3 -7 -7 -6 -5 1 -29 -1 -55 -6
-26 -4 -51 -7 -55 -8 -5 0 -18 -4 -31 -9 -13 -5 -37 -11 -55 -14 -18 -3 -43
-10 -57 -15 -14 -5 -36 -12 -50 -14 -14 -3 -25 -5 -25 -6 0 -1 -7 -3 -15 -5
-8 -2 -37 -11 -65 -19 -140 -41 -201 -61 -206 -69 -3 -5 -9 -8 -13 -8 -3 1 -7
1 -8 0 -2 0 -14 -3 -28 -5 -13 -2 -27 -9 -31 -15 -3 -6 -10 -10 -15 -10 -13 1
-44 -9 -94 -31 -24 -11 -49 -22 -55 -23 -38 -10 -55 -18 -55 -26 0 -5 -3 -8
-7 -7 -5 1 -25 -6 -47 -15 -21 -9 -42 -17 -46 -17 -4 0 -13 -7 -20 -15 -7 -8
-16 -13 -20 -10 -5 3 -14 0 -22 -7 -7 -7 -20 -14 -28 -16 -8 -2 -18 -9 -22
-15 -4 -7 -8 -9 -8 -4 0 9 -153 -73 -158 -85 -2 -5 -8 -6 -13 -2 -5 3 -9 0 -9
-6 0 -6 -4 -8 -10 -5 -5 3 -10 3 -10 -2 0 -4 -10 -13 -23 -19 -47 -23 -92 -50
-111 -66 -11 -10 -25 -18 -32 -18 -6 0 -15 -7 -18 -16 -3 -8 -10 -12 -16 -9
-6 3 -13 -1 -16 -9 -3 -9 -10 -13 -15 -10 -5 3 -9 0 -9 -5 0 -6 -5 -11 -11
-11 -12 0 -78 -47 -96 -69 -7 -8 -13 -11 -13 -7 0 7 -105 -70 -138 -101 -7 -7
-16 -13 -20 -13 -4 0 -28 -20 -54 -45 -27 -24 -48 -42 -48 -39 0 2 -16 -10
-35 -28 -19 -18 -57 -53 -86 -78 -56 -49 -289 -280 -283 -280 3 0 -11 -15 -31
-32 -19 -18 -35 -36 -35 -40 0 -6 -36 -48 -97 -114 -12 -13 -19 -24 -16 -24 3
0 -4 -9 -17 -20 -13 -11 -19 -20 -15 -20 5 0 2 -6 -7 -12 -9 -7 -44 -51 -77
-98 -34 -47 -69 -93 -77 -102 -7 -10 -10 -18 -6 -18 4 0 2 -4 -4 -8 -11 -7
-74 -100 -74 -108 0 -3 -5 -10 -10 -17 -27 -32 -68 -102 -64 -109 3 -4 0 -8
-6 -8 -6 0 -16 -13 -21 -30 -6 -16 -16 -30 -22 -30 -6 0 -7 -3 -4 -6 3 -4 -3
-18 -13 -32 -11 -13 -20 -29 -20 -34 0 -6 -9 -23 -21 -39 -11 -16 -17 -29 -13
-29 3 0 0 -7 -7 -16 -7 -9 -14 -23 -15 -31 -2 -8 -10 -23 -20 -34 -9 -10 -13
-19 -9 -19 4 0 1 -8 -8 -17 -8 -10 -16 -22 -17 -28 -1 -5 -15 -39 -32 -75 -16
-36 -31 -69 -32 -75 -2 -5 -9 -23 -16 -40 -7 -16 -19 -45 -27 -64 -9 -18 -16
-39 -18 -45 -1 -6 -6 -20 -10 -31 -4 -11 -14 -35 -22 -54 -7 -19 -11 -36 -9
-39 3 -2 -1 -11 -9 -19 -8 -8 -15 -23 -15 -32 0 -10 -7 -34 -15 -53 -8 -20
-17 -48 -20 -64 -7 -35 -10 -44 -18 -64 -4 -8 -8 -24 -10 -35 -2 -11 -6 -27
-9 -35 -12 -32 -34 -126 -33 -140 0 -8 -3 -18 -7 -21 -5 -3 -10 -28 -13 -55
-2 -27 -5 -51 -6 -54 -1 -3 -1 -8 0 -12 0 -5 -3 -8 -7 -8 -4 0 -8 -8 -8 -17
-1 -18 -10 -74 -21 -128 -3 -16 -6 -51 -7 -77 -1 -25 -5 -44 -9 -41 -5 3 -8
-8 -7 -23 1 -16 1 -31 0 -34 -1 -3 -3 -25 -5 -50 -3 -25 -7 -72 -10 -105 -8
-75 -14 -597 -7 -609 2 -4 6 -42 8 -85 2 -42 6 -92 8 -111 14 -121 18 -148 22
-170 3 -14 7 -38 9 -55 10 -67 13 -91 19 -115 3 -14 8 -38 11 -55 6 -31 11
-52 21 -95 3 -14 6 -31 6 -37 1 -7 5 -13 9 -13 5 0 6 -7 3 -15 -3 -8 -2 -20 2
-27 5 -7 10 -21 11 -30 6 -34 10 -53 16 -68 3 -8 15 -49 27 -90 28 -100 59
-191 71 -213 5 -10 7 -22 4 -27 -4 -6 0 -12 7 -15 7 -3 14 -17 15 -31 0 -15 5
-29 10 -33 4 -3 9 -12 11 -20 2 -8 9 -29 17 -48 8 -18 15 -35 15 -38 1 -3 12
-31 27 -62 31 -72 45 -107 43 -112 -1 -2 2 -7 7 -10 10 -7 48 -84 44 -90 -2
-2 1 -7 6 -10 10 -7 42 -71 41 -85 0 -5 4 -12 9 -15 11 -8 43 -61 50 -83 3
-10 10 -18 15 -18 5 0 7 -4 4 -9 -3 -5 1 -14 9 -21 8 -7 15 -19 15 -26 0 -8 4
-14 9 -14 5 0 11 -8 15 -17 3 -10 15 -31 26 -48 11 -16 24 -39 29 -50 5 -11
18 -30 29 -41 12 -12 18 -25 15 -28 -4 -3 -1 -6 5 -6 7 0 12 -7 12 -15 0 -8 5
-15 10 -15 6 0 10 -5 10 -11 0 -6 6 -17 13 -24 19 -22 31 -38 51 -70 21 -33
32 -47 59 -76 9 -10 14 -19 11 -19 -3 0 1 -6 8 -13 7 -8 29 -33 48 -57 19 -24
43 -52 52 -62 10 -10 18 -20 18 -23 0 -7 81 -96 212 -233 22 -23 45 -42 50
-42 5 0 7 -4 3 -9 -3 -5 8 -18 25 -27 16 -10 30 -24 30 -31 0 -7 4 -13 9 -13
5 0 33 -22 61 -50 28 -27 54 -50 57 -50 3 0 19 -14 35 -30 15 -17 31 -30 34
-30 2 0 15 -9 27 -21 12 -11 35 -30 51 -42 15 -12 36 -30 44 -40 9 -9 20 -17
25 -17 5 0 14 -6 21 -13 21 -20 63 -50 67 -47 2 1 21 -13 42 -31 21 -19 41
-34 45 -34 3 0 17 -10 30 -22 13 -12 42 -31 64 -43 22 -11 47 -27 55 -35 8 -8
21 -15 29 -15 8 0 14 -4 14 -10 0 -5 7 -10 15 -10 8 0 15 -4 15 -9 0 -5 8 -11
18 -14 9 -4 44 -22 77 -42 33 -20 71 -41 85 -48 14 -6 28 -15 31 -20 3 -5 8
-8 10 -6 2 1 59 -25 126 -58 67 -34 124 -58 127 -55 3 3 6 0 6 -6 0 -7 3 -11
8 -10 4 1 21 -4 37 -11 17 -7 32 -13 35 -13 3 0 14 -5 25 -11 11 -6 23 -10 28
-9 4 1 7 -3 7 -9 0 -6 7 -9 15 -6 8 4 17 2 19 -2 3 -4 34 -18 68 -30 35 -12
72 -26 83 -30 53 -21 89 -30 98 -24 6 3 7 1 4 -4 -6 -9 5 -14 71 -28 7 -2 36
-10 65 -19 44 -13 91 -26 157 -43 8 -2 24 -5 35 -6 11 -2 26 -6 33 -10 6 -5
16 -5 22 -2 6 3 10 2 10 -2 0 -5 12 -10 28 -11 28 -3 67 -9 67 -12 0 -3 39
-10 75 -14 19 -3 46 -7 60 -10 14 -3 41 -8 60 -10 19 -3 49 -7 65 -10 92 -14
275 -29 372 -30 40 -1 73 -5 73 -9 0 -4 9 -3 20 3 11 6 20 7 20 2 0 -4 9 -8
20 -8 11 0 20 4 20 9 0 4 6 5 13 0 18 -11 37 -12 37 -2 0 6 6 7 16 1 9 -5 32
-6 50 -2 20 5 34 4 34 -2 0 -5 5 -6 10 -3 6 4 50 8 98 10 100 4 235 14 272 20
14 2 48 7 75 10 47 5 94 11 140 19 11 2 43 7 70 11 28 4 52 11 53 16 2 5 7 7
11 5 7 -4 81 8 171 30 14 3 31 6 38 6 6 1 12 4 12 8 0 3 8 7 18 8 23 2 66 10
72 13 3 1 10 3 15 4 6 2 13 4 18 5 4 1 10 3 15 5 4 1 14 4 22 7 8 3 74 24 145
47 126 41 208 71 290 107 22 10 43 17 48 16 4 -1 7 2 7 8 0 6 3 9 8 8 15 -4
82 24 82 34 0 6 3 9 6 5 4 -3 21 1 38 10 17 10 33 18 36 18 16 4 66 31 72 40
4 5 8 6 8 2 0 -5 12 0 28 11 15 11 29 20 32 20 17 1 58 26 54 34 -3 5 -2 7 3
6 13 -4 93 34 93 44 0 5 5 6 10 3 6 -3 13 1 16 9 3 9 10 14 14 11 5 -3 15 1
22 9 8 7 30 21 48 31 42 22 94 57 98 68 2 4 8 5 13 1 5 -3 12 2 15 10 3 9 12
16 20 16 8 0 14 5 14 10 0 6 7 10 15 10 8 0 15 3 15 8 1 4 25 23 55 42 30 19
55 38 55 43 0 4 6 7 14 7 8 0 16 3 18 8 2 4 45 40 97 81 51 40 110 89 129 107
20 19 40 34 44 34 4 0 8 8 8 17 0 9 3 13 7 10 3 -4 16 5 29 18 13 14 28 25 34
25 6 0 10 3 8 8 -2 4 9 19 24 34 15 15 28 25 28 23 0 -2 13 10 30 26 16 16 29
31 29 32 -1 1 38 43 85 92 111 116 128 135 120 135 -4 0 5 9 20 21 14 11 24
25 21 30 -4 5 1 9 9 9 9 0 16 4 16 8 0 8 34 54 63 84 10 10 15 24 11 30 -4 7
-3 8 4 4 7 -4 12 -4 12 1 0 4 11 21 25 37 13 16 22 33 18 39 -3 5 -2 7 4 4 9
-6 55 55 88 115 5 10 13 18 17 18 5 0 8 7 8 15 0 7 7 18 15 23 9 4 17 18 18
30 0 12 3 19 6 17 5 -6 71 96 70 109 0 5 3 12 8 15 11 8 43 61 50 84 3 9 10
17 15 17 5 0 6 5 3 10 -3 6 -1 10 6 10 7 0 10 3 6 6 -3 4 1 13 9 21 8 8 12 19
9 24 -4 5 -2 9 3 9 8 0 20 28 20 47 0 3 4 9 9 12 4 3 15 15 23 25 13 18 13 19
0 11 -12 -7 -12 -5 1 11 9 10 23 35 31 54 9 19 28 60 41 90 14 30 27 62 29 70
2 8 9 21 16 28 7 8 10 17 7 22 -3 5 -1 11 5 15 5 3 10 15 10 26 0 10 5 19 12
19 6 0 9 3 5 6 -3 4 0 19 9 35 8 16 12 29 8 29 -4 0 -2 6 3 13 11 12 47 114
48 132 1 6 6 19 12 30 6 11 11 23 12 28 1 4 2 9 2 12 1 3 3 10 4 15 1 6 3 11
5 13 4 5 12 44 13 69 1 14 4 24 6 22 10 -10 40 105 44 164 0 6 3 12 7 12 4 0
10 17 13 38 9 55 17 95 23 104 3 4 -1 8 -8 8 -11 0 -11 2 0 9 7 4 14 24 15 44
1 20 5 37 9 37 4 0 7 8 7 18 1 31 17 157 21 157 1 0 3 18 5 40 1 22 4 40 5 40
2 0 4 18 5 40 5 86 15 188 21 196 3 5 0 9 -6 9 -7 0 -8 5 -3 13 12 18 12 469
0 485 -6 8 -6 12 2 12 7 0 9 5 5 11 -3 6 -8 39 -10 72 -4 70 -9 114 -20 202
-4 33 -7 68 -6 78 0 9 -2 17 -6 17 -4 0 -7 12 -8 28 0 15 -4 45 -8 67 -4 22
-9 54 -12 70 -5 38 -12 70 -14 70 -1 0 -4 14 -6 30 -3 17 -7 37 -11 45 -3 8
-8 31 -10 50 -2 19 -8 36 -13 38 -5 2 -6 10 -3 19 4 10 2 14 -4 10 -7 -5 -9 0
-6 12 3 11 -1 37 -8 58 -7 21 -14 40 -14 43 -9 35 -19 67 -23 75 -3 5 -7 20
-8 34 -2 13 -7 27 -11 30 -4 3 -8 11 -9 16 -1 24 -27 106 -35 111 -5 3 -9 11
-9 19 0 8 -5 26 -12 42 -6 15 -12 31 -13 36 -2 4 -4 9 -5 12 -3 7 -7 22 -9 36
0 5 -4 8 -8 6 -5 -3 -9 6 -10 20 0 14 -6 29 -13 33 -6 4 -11 10 -10 14 3 11
-43 121 -54 128 -6 4 -8 8 -4 8 4 0 -4 22 -17 49 -14 27 -25 54 -25 59 0 6 -3
12 -7 14 -5 2 -24 35 -43 75 -19 39 -37 70 -40 68 -3 -2 -7 6 -7 18 -1 12 -7
23 -13 25 -5 2 -10 10 -10 18 0 8 -5 14 -11 14 -5 0 -8 4 -5 8 3 5 -3 18 -14
29 -10 12 -16 24 -13 27 4 3 1 6 -6 6 -7 0 -9 5 -6 10 3 6 2 10 -2 10 -8 0
-26 29 -39 63 -3 9 -10 17 -15 17 -5 0 -9 6 -9 13 0 7 -8 22 -18 33 -9 10 -23
31 -29 47 -7 15 -17 27 -23 27 -5 0 -10 5 -10 10 0 13 -53 89 -87 125 -7 8
-13 17 -13 22 0 4 -15 24 -33 44 -17 20 -39 47 -47 59 -17 26 -62 80 -102 122
-14 15 -25 28 -23 28 2 0 -19 23 -46 51 -27 28 -49 52 -49 54 0 9 -222 225
-231 225 -6 0 -7 5 -4 10 3 6 1 10 -5 10 -6 0 -22 10 -35 23 -98 92 -191 168
-199 160 -3 -3 -6 0 -6 8 0 8 -15 23 -32 34 -18 10 -40 27 -49 37 -9 10 -21
18 -27 18 -6 0 -21 10 -34 23 -21 20 -99 74 -115 80 -4 1 -18 12 -32 25 -13
12 -26 20 -29 18 -2 -3 -13 4 -25 15 -11 10 -33 25 -49 31 -15 7 -28 16 -28
20 0 5 -4 8 -10 8 -5 0 -26 11 -46 25 -20 14 -40 23 -44 20 -4 -3 -11 2 -14
11 -3 8 -10 12 -16 9 -5 -3 -10 -1 -10 4 0 6 -7 11 -15 11 -8 0 -15 5 -15 10
0 6 -9 10 -20 10 -11 0 -20 3 -20 8 0 8 -55 34 -66 32 -4 -1 -10 2 -13 7 -10
15 -149 82 -155 76 -3 -4 -6 -1 -6 5 0 7 -6 12 -13 12 -8 0 -35 11 -61 24 -27
14 -55 22 -64 19 -10 -4 -13 -2 -8 5 4 7 2 12 -4 12 -6 0 -29 9 -51 19 -21 11
-37 15 -33 10 3 -5 -11 0 -30 12 -20 12 -36 18 -36 14 0 -4 -6 -2 -13 4 -8 6
-17 8 -20 4 -4 -3 -7 -1 -7 6 0 8 -7 11 -15 7 -8 -3 -15 0 -15 5 0 6 -9 9 -20
6 -11 -3 -22 -1 -25 3 -7 12 -137 55 -154 51 -8 -1 -17 2 -20 8 -4 5 -20 12
-36 15 -17 3 -46 11 -65 16 -19 6 -46 13 -60 16 -14 3 -43 10 -65 16 -22 6
-51 12 -65 12 -14 1 -27 4 -30 7 -3 4 -23 9 -45 13 -22 3 -51 8 -65 11 -13 2
-40 7 -60 10 -52 8 -73 12 -94 21 -14 5 -17 4 -11 -5 6 -10 3 -11 -15 -1 -12
6 -31 10 -41 7 -10 -3 -19 -2 -19 1 0 7 -18 9 -130 17 -25 2 -45 4 -45 5 0 12
-585 18 -592 7 -3 -5 -8 -5 -12 1 -3 5 -15 6 -26 3z"/>
</g>
</svg>
